<svg xmlns="http://www.w3.org/2000/svg" xmlns:xlink="http://www.w3.org/1999/xlink" viewBox="0 0 134.84 134.84"><defs><style>.cls-1{fill:#393839;}.cls-2{fill:url(#linear-gradient);}.cls-3{fill:url(#linear-gradient-2);}.cls-4{fill:url(#linear-gradient-3);}.cls-5{fill:url(#linear-gradient-4);}.cls-6{fill:url(#linear-gradient-5);}.cls-7{fill:url(#linear-gradient-6);}.cls-8{fill:url(#linear-gradient-7);}.cls-9{fill:url(#linear-gradient-8);}.cls-10{fill:url(#linear-gradient-9);}.cls-11{fill:url(#linear-gradient-10);}.cls-12{fill:url(#linear-gradient-11);}.cls-13{fill:url(#linear-gradient-12);}.cls-14{fill:url(#linear-gradient-13);}.cls-15{fill:none;stroke-miterlimit:10;stroke-width:2.86px;stroke:url(#linear-gradient-14);}</style><linearGradient id="linear-gradient" x1="36.87" y1="71.03" x2="99.24" y2="71.03" gradientUnits="userSpaceOnUse"><stop offset="0" stop-color="#8b5e3c"/><stop offset="0.39" stop-color="#fbb040"/><stop offset="0.69" stop-color="#8b5e3c"/><stop offset="1" stop-color="#fbb040"/></linearGradient><linearGradient id="linear-gradient-2" x1="66.69" y1="39.07" x2="83.23" y2="39.07" xlink:href="#linear-gradient"/><linearGradient id="linear-gradient-3" x1="78.67" y1="38.57" x2="95.11" y2="38.57" xlink:href="#linear-gradient"/><linearGradient id="linear-gradient-4" x1="80.18" y1="28.44" x2="90.8" y2="28.44" xlink:href="#linear-gradient"/><linearGradient id="linear-gradient-5" x1="84" y1="38.89" x2="96.7" y2="38.89" xlink:href="#linear-gradient"/><linearGradient id="linear-gradient-6" x1="67.44" y1="36.64" x2="80.59" y2="36.64" xlink:href="#linear-gradient"/><linearGradient id="linear-gradient-7" x1="71.75" y1="27.94" x2="86.8" y2="27.94" xlink:href="#linear-gradient"/><linearGradient id="linear-gradient-8" x1="89.04" y1="28.26" x2="97.01" y2="28.26" xlink:href="#linear-gradient"/><linearGradient id="linear-gradient-9" x1="80.23" y1="46.07" x2="86.03" y2="46.07" xlink:href="#linear-gradient"/><linearGradient id="linear-gradient-10" x1="79.44" y1="37.89" x2="86.91" y2="37.89" xlink:href="#linear-gradient"/><linearGradient id="linear-gradient-11" x1="67.4" y1="30.12" x2="72.81" y2="30.12" xlink:href="#linear-gradient"/><linearGradient id="linear-gradient-12" x1="82.54" y1="25.55" x2="88.24" y2="25.55" xlink:href="#linear-gradient"/><linearGradient id="linear-gradient-13" x1="59.73" y1="100" x2="66.32" y2="100" xlink:href="#linear-gradient"/><linearGradient id="linear-gradient-14" x1="5.11" y1="67.42" x2="130.01" y2="67.42" gradientUnits="userSpaceOnUse"><stop offset="0" stop-color="#8b5e3c"/><stop offset="0.3" stop-color="#fbb040"/><stop offset="0.69" stop-color="#8b5e3c"/><stop offset="1" stop-color="#fbb040"/></linearGradient></defs><title>Asset 1</title><g id="Layer_2" data-name="Layer 2"><g id="Layer_1-2" data-name="Layer 1"><circle class="cls-1" cx="67.42" cy="67.42" r="67.42"/><path class="cls-2" d="M69.07,101c-.33,1.59-.66,3.19-.95,4.61a5.41,5.41,0,0,1,.59-.22l.13.21-4,3.66.2.25,3.49-2.82.21.16L68,108.11c1.12,4.34.47,8.75.77,13.12l-.44.1c-.74-1.78-1.45-3.57-2.22-5.33-.31-.7-.83-1.29-1.15-2-.93-2-.9-2,.46-4.09l-1.66,1.25c-.91-1.57-1.83-3.06-2.62-4.61a1.51,1.51,0,0,1,.29-1.32c2-2.14,4-4.22,6.07-6.32l-.29-.29-6.71,6.74-6.22-9.85,3.83-4.18,0,0-4,4.14-.64-.36.25-1.51-1.15.07a3.7,3.7,0,0,1,.29-1.24A9.1,9.1,0,0,0,54.3,90L52,92.49c-1.17-1.26-2.61-2.38-3.41-3.84-.51-.93-1.36-1.34-1.88-2.14-.64-1-1.5-1.81-2.22-2.73a24,24,0,0,1-2-2.8c-1.2-2.1-2.33-4.26-3.41-6.43a3.72,3.72,0,0,1,0-1.49c-1.46-.5-1-2-1.33-3.08-.57-1.7,1.65-1.89,2-3.41l-2.13,1.92c-1-2.5-.69-7,.73-8.31L37,60.46c1.08-9.37,5.1-17.37,11-24.56-.49,1.16-1,2.32-1.49,3.45a29.18,29.18,0,0,0-2,4.36,13.34,13.34,0,0,1-3.12,5.62L43,48l.3.19-1.85,4.47c1,.85,0,1.79-.3,2.65A19,19,0,0,1,39.56,58L41,57c0,2.67-.61,4.88-2.74,6.51l2.14-1.84.22.23-2.17,2.46.16.18,1.88-1.63.56,7.52.18-.08,1.2,3.15L41.09,75.1l.16.18,1.29-1a9.08,9.08,0,0,1,.9,1.28,27.94,27.94,0,0,0,6.79,8.74A5,5,0,0,1,51,85.8l.62-.52L54,87.36l-1.46,1.55c.15,0,.3.13.33.1,1.22-1.2,2.3-1.43,3.71-.07a19.21,19.21,0,0,0,4,2.56c.33.19.85,0,1.52,0l-.91,1.41.12.13L62.56,92l1.94.78L66,90.53l-1.49.7.94-4.56-.65.13c.17-1.88.38-3.7.48-5.52a8.6,8.6,0,0,0-.33-1.77c-.26-1.62-.14-3.12,1.28-4.3l-1.12.8c-.1-1.68-.23-3.32-.29-5,0-.85.11-1.7.11-2.56,0-3,0-6.07,0-9.11,0-1.56.35-3.13.26-4.67s-.73-3.11-.76-4.66c-.05-2.23.4-4.48.3-6.7-.06-1.18,1-2.37,0-3.56-.15-.18,0-.65.09-.94a8.77,8.77,0,0,0,1-3.66c0-1.41,1-3,2-4.18a22.6,22.6,0,0,1,4.88-4.93c1.74-1.17,3.28-2.93,5.66-3,.36,0,.66-.58,1-.74,1.43-.56,2.88-1.06,4.32-1.58l.26.5-1.39,1.62.2.24A11.7,11.7,0,0,1,85.38,21c.84-.35,1.94-.08,3.13-.08l-2.36,2.27.22.25c1.08-.82,2.07-2,3.28-2.32.94-.26,2.17.55,3.41.93l-4,4.8.29.25,4.45-4.86c3.3.71,4.85,3.06,5.39,6,.26,1.37-.46,2.91-.69,4.39-.22,1.31-1.76,2.15-1.28,3.77.1.33-.45.94-.82,1.31-2.61,2.7-5.15,5.48-7.94,8-1.14,1-2.32,2.65-4.43,1.87-.31-.11-.88.55-1.37.78-1.43.68-2.78,2.2-4.5.52a.29.29,0,0,0-.3,0c-1.67,1-3.14-.3-4.64-.36-2.44-.1-5.38-1-7.2,1.82a6.1,6.1,0,0,1-1.14,1.06l.35.44c.57-.49,1.14-1,1.69-1.47s1.07-1,1.6-1.53l.4.2-.54,3a44.68,44.68,0,0,0,.32,4.46c.4,2.28-1.71,2.94-2.45,4.58L69,58.73c-.21,3.64-.46,6.8-.56,10a37.85,37.85,0,0,0,.35,4,17.08,17.08,0,0,1,.1,3.42,20.08,20.08,0,0,1-1,3.27l1-.64c-.8,1.75.92,3.64-1.4,5l.77-.11.58-.08c-.21,2-.42,4-.63,6l-.44,0,1.14-.64L68.22,92l.19-.13c.13.85.63,1.89.31,2.49-.47.86-1.53,1.4-2.33,2.08l.4.44,2-1.53c0,1.58,0,2.93,0,4.27,0,.32-.52.64-.83.9-1.63,1.36-3.28,2.69-4.9,4a2.24,2.24,0,0,0-.78,1.32l6.29-5.2ZM83.23,32.55c-6.33,3.33-11.43,8.16-16.54,13a7.48,7.48,0,0,0,3.6-1.38C74.67,40.4,78.93,36.45,83.23,32.55Zm11.88-.88L78.67,45.46C84.83,41.67,90.75,37.58,95.11,31.67ZM80.18,33.16c4.14-2.32,7.88-5.09,10.62-9.45A42.8,42.8,0,0,0,80.18,33.16ZM84,43.63l.56.62L96.7,34.17l-.52-.63ZM80.59,31.36,67.44,41.44l.38.48C71.85,38.09,77.39,36.19,80.59,31.36ZM86.8,22l-.35-.46L71.75,34l.32.37ZM89,31.46l.29.31c2.36-1.78,4.76-3.53,7.08-5.36.36-.28.41-.95.6-1.44l-.36-.22ZM86,43.58l-5.8,4.48.42.51C83.17,47.81,84.3,45.33,86,43.58Zm.88-8-.34-.47Q83,37.66,79.44,40.22l.33.46ZM67.4,31.94l.59.69L72.81,28l-.32-.36Zm15.14-4.45.35.41,5.35-4.24-.36-.45Zm-22.81,75,.35.41,6.24-5.4L66,97.14Z"/><path class="cls-3" d="M83.23,32.55c-4.3,3.9-8.56,7.85-12.94,11.66a7.48,7.48,0,0,1-3.6,1.38C71.8,40.71,76.9,35.88,83.23,32.55Z"/><path class="cls-4" d="M95.11,31.67c-4.36,5.91-10.28,10-16.44,13.79Z"/><path class="cls-5" d="M80.18,33.16A42.8,42.8,0,0,1,90.8,23.71C88.06,28.07,84.32,30.84,80.18,33.16Z"/><path class="cls-6" d="M84,43.63,96.18,33.54l.52.63L84.56,44.25Z"/><path class="cls-7" d="M80.59,31.36c-3.2,4.83-8.74,6.73-12.77,10.56l-.38-.48Z"/><path class="cls-8" d="M86.8,22,72.07,34.34,71.75,34l14.7-12.44Z"/><path class="cls-9" d="M89,31.46l7.61-6.71L97,25c-.19.49-.24,1.16-.6,1.44-2.32,1.83-4.72,3.58-7.08,5.36Z"/><path class="cls-10" d="M86,43.58c-1.73,1.75-2.86,4.23-5.38,5l-.42-.51Z"/><path class="cls-11" d="M86.91,35.58l-7.14,5.1-.33-.46q3.56-2.56,7.13-5.11Z"/><path class="cls-12" d="M67.4,31.94l5.09-4.33.32.36L68,32.63Z"/><path class="cls-13" d="M82.54,27.49l5.34-4.28.36.45L82.89,27.9Z"/><path class="cls-14" d="M59.73,102.46,66,97.14l.29.33-6.24,5.4Z"/><circle class="cls-15" cx="67.56" cy="67.42" r="61.02"/></g></g></svg>